<?xml version="1.0" standalone="no"?>
<!DOCTYPE svg PUBLIC "-//W3C//DTD SVG 20010904//EN"
 "http://www.w3.org/TR/2001/REC-SVG-20010904/DTD/svg10.dtd">
<svg version="1.0" xmlns="http://www.w3.org/2000/svg"
 width="512.000000pt" height="512.000000pt" viewBox="0 0 512.000000 512.000000"
 preserveAspectRatio="xMidYMid meet">
<metadata>
Created by potrace 1.11, written by Peter Selinger 2001-2013
</metadata>
<g transform="translate(0.000000,512.000000) scale(0.100000,-0.100000)"
fill="#000000" stroke="none">
<path d="M2240 4944 c-1081 -147 -1923 -994 -2065 -2077 -20 -155 -20 -459 0
-614 70 -530 310 -1018 685 -1393 374 -375 863 -615 1393 -685 155 -20 459
-20 614 0 530 70 1019 310 1393 685 375 375 615 863 685 1393 20 155 20 459 0
614 -87 656 -435 1248 -965 1635 -325 237 -709 390 -1113 443 -148 19 -481 18
-627 -1z m-595 -1475 c34 -9 105 -76 470 -440 237 -236 437 -429 445 -429 8 0
208 193 445 429 365 364 436 431 470 440 53 14 247 14 279 0 13 -7 30 -23 35
-38 8 -18 11 -284 9 -883 l-3 -857 -23 -23 c-22 -22 -29 -23 -202 -23 -166 0
-181 1 -199 20 -18 19 -19 46 -25 520 -4 274 -9 501 -12 504 -2 3 -163 -153
-357 -346 -380 -380 -380 -380 -459 -354 -23 8 -138 116 -378 356 -190 190
-348 345 -351 345 -4 0 -9 -225 -11 -500 l-3 -499 -23 -23 c-21 -22 -32 -23
-180 -26 -186 -4 -225 4 -241 50 -16 44 -15 1707 0 1742 6 13 21 29 33 34 28
14 231 15 281 1z"/>
</g>
</svg>
